<?xml version="1.0" standalone="no"?>
<!DOCTYPE svg PUBLIC "-//W3C//DTD SVG 20010904//EN"
 "http://www.w3.org/TR/2001/REC-SVG-20010904/DTD/svg10.dtd">
<svg version="1.0" xmlns="http://www.w3.org/2000/svg"
 width="287.000000pt" height="378.000000pt" viewBox="0 0 287.000000 378.000000"
 preserveAspectRatio="xMidYMid meet">

<g transform="translate(0.000000,378.000000) scale(0.100000,-0.100000)"
fill="#000000" stroke="none">
<path d="M580 3604 c-45 -20 -86 -59 -113 -109 l-22 -40 -3 -1060 c-2 -745 0
-1075 8 -1111 13 -63 67 -129 124 -155 37 -17 70 -19 308 -19 l266 0 4 -317
c4 -312 4 -319 29 -385 86 -224 288 -368 516 -368 97 0 163 15 252 57 90 43
191 140 238 229 66 124 63 60 63 1331 l0 1152 45 31 c52 36 165 179 165 210 0
20 -107 216 -138 253 -12 14 -32 17 -103 17 l-87 0 -20 34 c-28 47 -59 65
-114 67 -41 2 -47 5 -53 28 -14 56 -56 111 -108 141 l-52 30 -585 0 c-500 -1
-590 -3 -620 -16z m1218 -94 c65 -40 62 17 62 -1145 0 -1162 3 -1105 -62
-1145 -32 -19 -49 -20 -605 -20 l-572 0 -35 31 c-20 17 -40 47 -46 67 -14 52
-14 2101 1 2139 13 34 47 72 74 83 11 5 274 9 585 9 550 1 566 0 598 -19z
m230 -192 c17 -22 212 -385 212 -396 0 -10 -64 -52 -79 -52 -4 0 -15 25 -26
56 -28 83 -68 140 -114 164 -22 11 -47 20 -56 20 -13 0 -15 18 -15 110 l0 110
34 0 c18 0 38 -6 44 -12z m284 -173 c26 -44 47 -84 48 -90 0 -5 -11 -23 -24
-39 l-23 -30 -56 105 c-79 147 -77 141 -31 137 36 -3 41 -7 86 -83z m-320
-144 c15 -12 40 -60 68 -130 41 -107 62 -133 90 -116 7 4 10 -365 10 -1119 0
-1075 -1 -1127 -19 -1185 -24 -77 -70 -149 -130 -204 -143 -127 -351 -153
-525 -65 -52 27 -138 109 -175 167 -62 99 -66 126 -66 456 l0 300 275 5 c151
3 284 9 295 14 46 22 86 61 110 109 l25 51 0 868 c0 482 4 868 9 868 4 0 19
-9 33 -19z"/>
<path d="M797 3273 c-2 -5 -2 -14 -1 -20 1 -7 2 -24 3 -38 l1 -25 400 0 400 0
0 45 0 45 -399 0 c-220 0 -402 -3 -404 -7z"/>
<path d="M960 2715 l0 -135 240 0 240 0 0 135 0 135 -240 0 -240 0 0 -135z"/>
<path d="M1224 2174 c-54 -75 -174 -272 -174 -285 0 -9 76 -34 136 -45 19 -3
34 -10 34 -14 0 -4 -14 -40 -30 -80 -34 -82 -82 -232 -76 -238 7 -7 94 124
165 248 39 68 67 127 63 131 -7 5 -38 15 -129 39 l-42 11 33 77 c41 96 80 212
73 218 -3 3 -27 -25 -53 -62z"/>
</g>
</svg>
