<?xml version="1.0" standalone="no"?>
<!DOCTYPE svg PUBLIC "-//W3C//DTD SVG 20010904//EN"
 "http://www.w3.org/TR/2001/REC-SVG-20010904/DTD/svg10.dtd">
<svg version="1.0" xmlns="http://www.w3.org/2000/svg"
 width="512.000000pt" height="512.000000pt" viewBox="0 0 512.000000 512.000000"
 preserveAspectRatio="xMidYMid meet">

<g transform="translate(0.000000,512.000000) scale(0.100000,-0.100000)"
fill="#000000" stroke="none">
<path d="M730 5104 c-100 -16 -154 -30 -217 -56 -192 -79 -341 -222 -428 -411
-30 -65 -70 -196 -62 -204 2 -1 34 3 72 9 99 15 358 4 470 -21 134 -29 274
-76 425 -143 274 -121 484 -178 739 -199 447 -37 934 112 1359 417 42 31 22
-2 -56 -91 -175 -200 -423 -412 -622 -532 -368 -221 -694 -283 -1061 -203
-239 52 -385 107 -894 335 -140 63 -337 135 -413 150 l-32 7 0 -296 0 -297 68
8 c37 4 132 8 212 7 237 -1 432 -49 716 -175 76 -33 185 -77 243 -96 578 -193
1198 -105 1730 248 68 44 125 79 127 76 8 -8 -124 -153 -253 -278 -313 -303
-643 -493 -978 -565 -123 -26 -341 -24 -484 4 -225 45 -457 127 -796 282 -233
107 -374 163 -471 190 -44 12 -87 24 -96 26 -17 5 -18 -14 -18 -294 l0 -299
48 10 c81 17 355 13 462 -7 139 -27 305 -79 443 -140 216 -96 320 -132 497
-174 237 -57 572 -53 838 9 224 52 496 171 692 304 62 42 115 74 117 71 7 -7
-116 -147 -226 -255 -321 -314 -664 -516 -1001 -588 -130 -27 -363 -25 -500 5
-251 55 -434 121 -803 289 -254 115 -358 156 -478 188 l-90 24 4 -877 c3 -974
0 -923 72 -1079 104 -224 301 -389 542 -450 64 -17 189 -18 1933 -18 2082 0
1913 -6 2077 70 224 104 389 301 450 542 17 64 18 189 18 1933 0 1744 -1 1869
-18 1933 -61 241 -226 438 -450 542 -163 75 9 69 -2042 71 -1012 1 -1851 0
-1865 -2z m735 -3843 c90 -40 115 -106 115 -301 0 -192 -20 -248 -103 -293
-41 -21 -52 -22 -399 -25 l-358 -3 0 135 0 136 105 0 105 0 0 -55 0 -55 168 0
c92 0 184 5 204 11 57 15 71 50 66 165 -5 141 0 138 -243 142 l-195 4 0 -56 0
-56 -105 0 -105 0 0 135 0 135 353 0 c320 0 356 -2 392 -19z m427 -196 c4
-273 -6 -258 175 -264 145 -4 194 6 211 44 8 17 12 96 12 230 l0 205 100 0
100 0 0 -249 c0 -259 -4 -287 -43 -330 -51 -56 -80 -61 -360 -61 -233 0 -261
2 -295 19 -93 47 -101 78 -102 379 l0 242 99 0 100 0 3 -215z m1436 201 c51
-27 73 -60 82 -127 16 -108 24 -99 -95 -99 -105 0 -105 0 -105 24 0 48 -29 56
-201 56 -209 0 -204 4 -204 -154 0 -107 2 -117 23 -138 22 -22 29 -23 186 -23
147 0 166 2 185 19 12 11 21 30 21 43 0 23 1 23 106 23 l107 0 -7 -72 c-7 -79
-26 -120 -69 -152 -27 -20 -42 -21 -305 -24 -289 -3 -330 1 -385 40 -52 37
-68 87 -74 227 -10 232 20 317 123 353 41 14 91 17 317 18 211 0 274 -3 295
-14z m996 -15 c60 -37 69 -71 74 -257 5 -201 -6 -261 -53 -303 -53 -46 -110
-53 -413 -49 -255 3 -269 4 -309 26 -74 39 -87 77 -91 272 -5 226 12 280 102
321 38 18 65 19 346 17 303 -3 305 -3 344 -27z"/>
<path d="M3785 1111 c-43 -18 -50 -39 -50 -152 0 -156 -4 -153 213 -157 145
-2 172 0 202 15 32 16 36 23 42 73 4 30 5 85 2 122 -10 102 -11 103 -218 105
-94 1 -180 -1 -191 -6z"/>
</g>
</svg>
