<?xml version="1.0" standalone="no"?>
<!DOCTYPE svg PUBLIC "-//W3C//DTD SVG 20010904//EN"
 "http://www.w3.org/TR/2001/REC-SVG-20010904/DTD/svg10.dtd">
<svg version="1.0" xmlns="http://www.w3.org/2000/svg"
 width="167.000000pt" height="168.000000pt" viewBox="0 0 167.000000 168.000000"
 preserveAspectRatio="xMidYMid meet">

<g transform="translate(0.000000,168.000000) scale(0.100000,-0.100000)"
fill="#000000" stroke="none">
<path d="M96 1603 c-4 -9 -6 -283 -5 -609 1 -493 3 -596 15 -611 13 -17 15
-16 40 12 77 88 189 210 264 290 160 171 327 350 421 453 51 56 99 102 106
102 10 0 13 -39 13 -169 0 -134 3 -170 14 -174 12 -5 110 98 241 252 17 19
113 126 214 238 120 133 181 208 177 218 -5 13 -100 15 -750 15 -686 0 -744
-1 -750 -17z"/>
<path d="M1503 1252 c-251 -288 -709 -792 -720 -792 -10 0 -13 35 -13 161 0
156 -1 160 -20 157 -22 -3 -650 -664 -650 -684 0 -32 24 -34 763 -34 l737 0 0
635 c0 548 -2 635 -14 635 -8 0 -46 -35 -83 -78z"/>
</g>
</svg>
